# xmcd CD database file
# Copyright (C) 1993-1998 Ti Kan
#
# Track frame offsets:
#	150
#	14982
#	26377
#	37150
#	52940
#	67082
#	81802
#	96852
#	114182
#	127107
#	138360
#	151240
#	164040
#	177112
#	188370
#	200910
#	212895
#
# Disc length: 3036 seconds
#
# Revision: 0
# Processed by: cddbd v1.4b41PL1 Copyright (c) Steve Scherf et al.
# Submitted via: CDmax 1.5.3
#
DISCID=f30bda11
DTITLE=Stompin' Tom Connors - Long Gone to the Yukon
DYEAR=1900
DGENRE=
TTITLE0=Long Gone to the Yukon
TTITLE1=Al Sass and Dee John
TTITLE2=Case Closed
TTITLE3=How Do You Like it Now?
TTITLE4=Country Jack (aka Wino of Skid Row)
TTITLE5=Kitchen Show
TTITLE6=Maple Leaf Waltz
TTITLE7=Polka Playin' Henry
TTITLE8=Broken Wings
TTITLE9=I'll Dream You Back
TTITLE10=My Home's in Newfoundland
TTITLE11=Song Bird Valley
TTITLE12=All Night Cafe Blues
TTITLE13=No, No, No
TTITLE14=Hey, Hey, Loretta
TTITLE15=I'll Do it For You
TTITLE16=Mrs. Blues Guitar
EXTD=
EXTT0=
EXTT1=
EXTT2=
EXTT3=
EXTT4=
EXTT5=
EXTT6=
EXTT7=
EXTT8=
EXTT9=
EXTT10=
EXTT11=
EXTT12=
EXTT13=
EXTT14=
EXTT15=
EXTT16=
PLAYORDER=
